HIERARCHY
ROOT Hips
{
	OFFSET 0.00000 0.00000 0.00000
	CHANNELS 6 Xposition Yposition Zposition Zrotation Yrotation Xrotation 
	JOINT LHipJoint
	{
		OFFSET 0 0 0
		CHANNELS 3 Zrotation Yrotation Xrotation
		JOINT LeftHip
		{
			OFFSET 1.92384 -1.64427 0.83032
			CHANNELS 3 Zrotation Yrotation Xrotation
			JOINT LeftKnee
			{
				OFFSET 2.52872 -6.94761 0.00000
				CHANNELS 3 Zrotation Yrotation Xrotation
				JOINT LeftAnkle
				{
					OFFSET 2.51827 -6.91890 0.00000
					CHANNELS 3 Zrotation Yrotation Xrotation
					JOINT LeftToe
					{
						OFFSET 0.22757 -0.62524 2.06528
						CHANNELS 3 Zrotation Yrotation Xrotation
						End Site
						{
							OFFSET 0.00000 -0.00000 1.08218
						}
					}
				}
			}
		}
	}
	JOINT RHipJoint
	{
		OFFSET 0 0 0
		CHANNELS 3 Zrotation Yrotation Xrotation
		JOINT RightHip
		{
			OFFSET -2.09517 -1.64427 0.83032
			CHANNELS 3 Zrotation Yrotation Xrotation
			JOINT RightKnee
			{
				OFFSET -2.55173 -7.01082 0.00000
				CHANNELS 3 Zrotation Yrotation Xrotation
				JOINT RightAnkle
				{
					OFFSET -2.50265 -6.87598 0.00000
					CHANNELS 3 Zrotation Yrotation Xrotation
					JOINT RightToe
					{
						OFFSET -0.22612 -0.62126 1.98677
						CHANNELS 3 Zrotation Yrotation Xrotation
						End Site
						{
							OFFSET -0.00000 -0.00000 1.04433
						}
					}
				}
			}
		}
	}
	JOINT lowerback
	{
		OFFSET 0 0 0
		CHANNELS 3 Zrotation Yrotation Xrotation
		JOINT Chest
		{
			OFFSET 0.02839 1.68926 0.31690
			CHANNELS 3 Zrotation Yrotation Xrotation
			JOINT Chest2
			{
				OFFSET -0.01522 1.70183 0.21192
				CHANNELS 3 Zrotation Yrotation Xrotation
				JOINT lowerneck
				{
					OFFSET 0 0 0
					CHANNELS 3 Zrotation Yrotation Xrotation
					JOINT Neck
					{
						OFFSET -0.04523 1.88988 0.10630
						CHANNELS 3 Zrotation Yrotation Xrotation
						JOINT Head
						{
							OFFSET 0.05172 1.78070 -0.56858
							CHANNELS 3 Zrotation Yrotation Xrotation
							End Site
							{
								OFFSET 0.01532 1.90392 -0.20434
							}
						}
					}
				}
				JOINT LeftCollar
				{
					OFFSET 0 0 0
					CHANNELS 3 Zrotation Yrotation Xrotation
					JOINT LeftShoulder
					{
						OFFSET 3.25522 0.75486 0.22086
CHANNELS 3 Zrotation Xrotation Yrotation
						JOINT LeftElbow
						{
OFFSET 0 -4.856450 0.000000
CHANNELS 3 Zrotation Xrotation Yrotation
							JOINT LeftWrist
							{
OFFSET 0 -2.798740 0.000000
CHANNELS 3 Zrotation Xrotation Yrotation
								JOINT lhand
								{
									OFFSET 0 0 0
CHANNELS 3 Zrotation Xrotation Yrotation
									JOINT LFingers
									{
OFFSET 0 -0.573400 0.000000
CHANNELS 3 Zrotation Xrotation Yrotation
										End Site
										{
OFFSET 0 -0.462290 0.000000
										}
									}
								}
								JOINT LThumb
								{
OFFSET 0 0.000000 0.000000
CHANNELS 3 Zrotation Xrotation Yrotation
									End Site
									{
OFFSET 0 -0.469350 0.469350
									}
								}
							}
						}
					}
				}
				JOINT RightCollar
				{
					OFFSET 0 0 0
					CHANNELS 3 Zrotation Yrotation Xrotation
					JOINT RightShoulder
					{
						OFFSET -3.29079 0.52751 0.36356
CHANNELS 3 Zrotation Xrotation Yrotation
						JOINT RightElbow
						{
OFFSET 0 -4.670180 0.000000
CHANNELS 3 Zrotation Xrotation Yrotation
							JOINT RightWrist
							{
OFFSET 0 -2.655340 0.000000
CHANNELS 3 Zrotation Xrotation Yrotation
								JOINT rhand
								{
									OFFSET 0 0 0
CHANNELS 3 Zrotation Xrotation Yrotation
									JOINT RFingers
									{
OFFSET 0 -0.594070 0.000000
CHANNELS 3 Zrotation Xrotation Yrotation
										End Site
										{
OFFSET 0 -0.478950 0.000000
										}
									}
								}
								JOINT RThumb
								{
OFFSET 0 0.000000 0.000000
CHANNELS 3 Zrotation Xrotation Yrotation
									End Site
									{
OFFSET 0 -0.486270 0.486270
									}
								}
							}
						}
					}
				}
			}
		}
	}
}
MOTION
Frames: 8
Frame Time: 0.008333333333333333
-4.329300 17.388700 20.015200 1.808500 0.138600 31.597900 0.000000 0.000000 0.000000 -12.194000 -20.009200 -35.767900 1.483300 7.694900 21.791200 -0.311900 15.565100 -18.542200 0.024500 -1.009600 -2.775200 0.000000 0.000000 0.000000 1.662600 29.260900 -39.417700 -2.555800 -9.938700 28.778400 0.212600 -18.794500 -24.782800 -0.000000 -0.044900 0.123300 -3.241900 -0.907000 -22.302400 -0.153300 -0.648300 -16.647500 1.548100 -0.037400 -5.938700 -8.432300 -5.705500 -11.703400 4.943500 -7.868700 30.586800 2.196200 -3.898000 12.635900 0.000000 -0.000000 0.000000 0.962700 16.759500 -41.639000 14.058900 -22.818900 2.850900 8.629800 14.089900 -25.308000 0.000000 0.000000 0.000000 -7.125000 0.000000 0.000000 -22.039200 54.154900 5.150000 0.000000 -0.000000 0.000000 -3.410000 15.593700 36.019100 -14.923000 -24.038700 -3.194500 -11.069400 21.198600 14.851300 0.000000 0.000000 0.000000 7.125000 0.000000 -0.000000 15.192200 44.549500 0.173100
-4.326108 17.388508 20.018097 1.809890 0.137644 31.579001 0.000000 0.000000 0.000000 -12.215831 -20.008191 -35.746782 1.485336 7.699772 21.805788 -0.309739 15.558395 -18.558972 0.024772 -1.016270 -2.793622 0.000000 0.000000 0.000000 1.729271 29.126470 -39.419956 -2.559720 -9.945712 28.801090 0.204364 -18.691744 -24.701494 0.000000 -0.025925 0.071229 -3.241614 -0.884492 -22.325735 -0.203442 -0.618171 -16.629522 1.498385 -0.025587 -5.907842 -8.358170 -5.683897 -11.838407 4.694795 -7.762049 30.600518 2.100939 -3.870089 12.645994 0.000000 0.000000 0.000000 1.003126 16.700102 -41.699574 14.048247 -22.803613 2.846757 8.638409 14.112305 -25.391021 0.000000 0.000000 0.000000 -7.125000 0.000000 0.000000 -22.080440 54.233134 5.203527 0.000000 0.000000 0.000000 -3.390976 15.517162 35.955285 -14.945567 -24.070223 -3.203720 -10.808008 21.230171 14.925482 0.000000 0.000000 0.000000 7.125000 0.000000 0.000000 15.448322 44.592136 0.159438
-4.325872 17.388600 20.019100 1.794232 0.193735 31.593590 0.000000 0.000000 0.000000 -12.187544 -20.005162 -35.790819 1.490405 7.712398 21.843967 -0.304251 15.508494 -18.543996 0.025156 -1.024059 -2.814899 0.000000 0.000000 0.000000 1.772925 29.086624 -39.419664 -2.557739 -9.942151 28.789709 0.205961 -18.697905 -24.696464 0.000000 -0.021995 0.060358 -3.249310 -0.866953 -22.343119 -0.240880 -0.592415 -16.624065 1.466113 -0.013658 -5.894616 -8.225148 -5.620396 -11.868107 4.580246 -7.650464 30.433400 2.050066 -3.818049 12.561902 0.000000 0.000000 0.000000 1.100628 16.636716 -41.800394 14.069447 -22.833913 2.855021 8.648836 14.088458 -25.418052 0.000000 0.000000 0.000000 -7.125000 0.000000 0.000000 -22.086479 54.260068 5.219898 0.000000 0.000000 0.000000 -3.320204 15.466241 35.850833 -14.941002 -24.063825 -3.201823 -10.840004 21.281516 14.945029 0.000000 0.000000 0.000000 7.125000 0.000000 0.000000 15.425857 44.614748 0.150393
-4.327225 17.388500 20.018084 1.745107 0.259903 31.588069 0.000000 0.000000 0.000000 -12.097985 -20.033435 -35.819648 1.497723 7.730403 21.898108 -0.302100 15.500869 -18.559038 0.025433 -1.030148 -2.831705 0.000000 0.000000 0.000000 1.880952 29.038601 -39.387305 -2.550894 -9.929812 28.749886 0.207516 -18.690649 -24.671451 0.000000 -0.014663 0.040254 -3.234842 -0.851226 -22.307546 -0.237173 -0.574667 -16.640782 1.465115 -0.004200 -5.932413 -8.109463 -5.502938 -11.879037 4.559280 -7.491030 30.334325 2.046664 -3.735387 12.503325 0.000000 0.000000 0.000000 1.197490 16.582669 -41.895929 14.073592 -22.839784 2.856600 8.702284 14.098040 -25.358185 0.000000 0.000000 0.000000 -7.125000 0.000000 0.000000 -21.998651 54.214602 5.172535 0.000000 0.000000 0.000000 -3.254596 15.457520 35.742729 -14.895848 -24.000901 -3.183461 -10.875979 21.384407 14.857412 0.000000 0.000000 0.000000 7.125000 0.000000 0.000000 15.366571 44.533433 0.181363
-4.328888 17.388300 20.016523 1.704323 0.338791 31.574740 0.000000 0.000000 0.000000 -12.012858 -20.071707 -35.842910 1.504598 7.747418 21.949408 -0.299823 15.490077 -18.569533 0.025756 -1.035840 -2.847463 0.000000 0.000000 0.000000 1.980921 28.994058 -39.342123 -2.543802 -9.917192 28.708899 0.211233 -18.696107 -24.646207 0.000000 0.000900 -0.002488 -3.199141 -0.834144 -22.312762 -0.230496 -0.556223 -16.625957 1.455324 0.002552 -5.912784 -8.042870 -5.405226 -11.919179 4.582041 -7.363843 30.298193 2.062681 -3.666651 12.483992 0.000000 0.000000 0.000000 1.302044 16.467380 -41.949443 14.074739 -22.841470 2.857087 8.685056 14.138027 -25.402347 0.000000 0.000000 0.000000 -7.125000 0.000000 0.000000 -22.041866 54.252293 5.204187 0.000000 0.000000 0.000000 -3.182583 15.422346 35.726677 -14.888682 -23.990830 -3.180537 -11.130294 21.385152 14.658159 0.000000 0.000000 0.000000 7.125000 0.000000 0.000000 15.078709 44.367593 0.241063
-4.330541 17.388500 20.013198 1.680273 0.382300 31.555870 0.000000 0.000000 0.000000 -11.957164 -20.106867 -35.846061 1.508361 7.756502 21.977085 -0.299141 15.498402 -18.592589 0.025380 -1.028806 -2.828017 0.000000 0.000000 0.000000 2.058068 28.935277 -39.320911 -2.540459 -9.911179 28.689456 0.208736 -18.663359 -24.618961 0.000000 -0.017417 0.047925 -3.139290 -0.796018 -22.322398 -0.250994 -0.514376 -16.588824 1.406332 0.016548 -5.865623 -7.951338 -5.321279 -11.937263 4.576491 -7.255944 30.258456 2.061247 -3.607711 12.457823 0.000000 0.000000 0.000000 1.441966 16.337370 -41.998424 14.092505 -22.866786 2.863982 8.713271 14.123509 -25.449770 0.000000 0.000000 0.000000 -7.125000 0.000000 0.000000 -22.042784 54.301236 5.231429 0.000000 0.000000 0.000000 -3.073040 15.387085 35.731743 -14.941798 -24.064926 -3.202208 -10.858015 21.264199 14.742932 0.000000 0.000000 0.000000 7.125000 0.000000 0.000000 15.347039 44.419609 0.225324
-4.332433 17.388200 20.007004 1.685018 0.408635 31.542326 0.000000 0.000000 0.000000 -11.944224 -20.114927 -35.866529 1.509249 7.758831 21.983993 -0.300316 15.486944 -18.558078 0.025400 -1.029506 -2.829998 0.000000 0.000000 0.000000 2.088360 28.868911 -39.347485 -2.542449 -9.914682 28.700862 0.206871 -18.624511 -24.577329 0.000000 -0.022847 0.062725 -3.096668 -0.761578 -22.291738 -0.276792 -0.476648 -16.561413 1.360740 0.030089 -5.849620 -7.784237 -5.234784 -12.009616 4.452206 -7.128164 30.346372 2.003939 -3.545391 12.485280 0.000000 0.000000 0.000000 1.548374 16.243433 -41.991840 14.073275 -22.839395 2.856520 8.757664 14.181753 -25.394047 0.000000 0.000000 0.000000 -7.125000 0.000000 0.000000 -21.966276 54.258074 5.188147 0.000000 0.000000 0.000000 -2.964773 15.368553 35.733079 -14.969518 -24.103669 -3.213467 -11.015033 21.256027 14.697541 0.000000 0.000000 0.000000 7.125000 0.000000 0.000000 15.193327 44.393026 0.233213
-4.334610 17.387800 19.999371 1.677710 0.400161 31.528490 0.000000 0.000000 0.000000 -11.922089 -20.118877 -35.883330 1.510895 7.762838 21.996019 -0.301715 15.499558 -18.561765 0.024400 -1.008067 -2.770948 0.000000 0.000000 0.000000 2.106279 28.848455 -39.370916 -2.542300 -9.914448 28.699995 0.206686 -18.595660 -24.535318 0.000000 -0.016137 0.044278 -3.042227 -0.715974 -22.255737 -0.304148 -0.427107 -16.538275 1.308898 0.048558 -5.841747 -7.577882 -5.143493 -12.033473 4.328592 -7.006567 30.411405 1.940268 -3.482172 12.492291 0.000000 0.000000 0.000000 1.632232 16.214644 -42.032743 14.065105 -22.827705 2.853300 8.725257 14.181596 -25.405581 0.000000 0.000000 0.000000 -7.125000 0.000000 0.000000 -22.004715 54.262729 5.200519 0.000000 0.000000 0.000000 -2.861206 15.359913 35.702352 -14.945754 -24.070429 -3.203770 -10.996941 21.354936 14.755628 0.000000 0.000000 0.000000 7.125000 0.000000 0.000000 15.227303 44.447828 0.212670
